<?xml version="1.0" encoding="UTF-8" standalone="no"?>
<!-- Created with Inkscape (http://www.inkscape.org/) -->

<svg
   width="800"
   height="800"
   viewBox="0 0 800 800"
   version="1.1"
   id="SVGRoot"
   xmlns="http://www.w3.org/2000/svg"
   xmlns:svg="http://www.w3.org/2000/svg">
  <defs
     id="defs9">
    <rect
       x="-1.0930085"
       y="1.0930085"
       width="801.17517"
       height="797.89618"
       id="rect182" />
  </defs>
  <g
     id="layer1">
    <path
       style="fill:#313a50"
       id="rect126"
       width="800"
       height="800"
       x="0"
       y="0"
       d="M 160,0 H 640 A 160,160 45 0 1 800,160 V 640 A 160,160 135 0 1 640,800 H 160 A 160,160 45 0 1 0,640 V 160 A 160,160 135 0 1 160,0 Z" />
    <g
       aria-label="Q"
       transform="matrix(1.5132709,0,0,1.5132709,-221.01189,-141.50039)"
       id="text180"
       style="font-size:400px;line-height:1;shape-inside:url(#rect182);shape-padding:144.456;display:inline">
      <path
         d="m 535.52845,468.80373 q 8.4,0 15.6,6.8 7.2,7.2 7.2,16.4 0,9.2 -8.4,17.2 -8,8.4 -20.8,14.8 -12.8,6.4 -26.8,10 -13.6,3.6 -24.8,3.6 -24.8,0 -39.6,-4.8 -14.8,-4.4 -24.4,-10.4 -9.6,-5.6 -18,-10.4 -8.4,-4.4 -20.4,-4.4 -7.6,0 -12.4,2.4 -4.4,2.8 -10,5.2 -5.2,2.8 -14.8,2.8 -10,0 -16.8,-7.6 -6.8,-7.6 -6.8,-16.4 0,-15.6 14,-20.8 l 82.8,-30.8 36,8.8 -77.6,28.8 22.8,-13.2 q 14,0 24.4,4 10.8,4.4 20.4,9.6 9.6,5.2 19.6,9.2 10.4,4.4 23.6,4.4 10.8,0 18,-3.6 7.6,-3.6 13.2,-8 6.8,-5.2 12,-9.6 5.6,-4 12,-4 z m -1.6,-151.2 q 0,30 -10,56 -10,26 -28.4,46 -18,19.6 -43.2,30.8 -24.8,11.2 -54.4,11.2 -29.6,0 -54.4,-11.2 -24.8,-11.2 -43.2,-30.8 -18,-20 -28,-46 -10,-26 -10,-56 0,-30 10,-56 10,-26 28,-45.6 18.4,-20 43.2,-31.2 24.8,-11.2 54.4,-11.2 29.6,0 54.4,11.2 25.2,11.2 43.2,31.2 18.4,19.6 28.4,45.6 10,26 10,56 z m -52,0 q 0,-26.8 -10.8,-48.4 -10.8,-22 -29.6,-34.8 -18.8,-12.8 -43.6,-12.8 -24.8,0 -43.6,12.8 -18.8,12.8 -29.6,34.4 -10.4,21.6 -10.4,48.8 0,26.8 10.4,48.8 10.8,21.6 29.6,34.4 18.8,12.8 43.6,12.8 24.8,0 43.6,-12.8 18.8,-12.8 29.6,-34.4 10.8,-22 10.8,-48.8 z"
         style="font-family:Quicksand;-inkscape-font-specification:'Quicksand, @wght=700';font-variation-settings:'wght' 700;text-align:center;text-anchor:middle;fill:#ffffff"
         id="path292" />
    </g>
  </g>
</svg>
